<?xml version="1.0" encoding="UTF-8"?><svg id="Layer_2" xmlns="http://www.w3.org/2000/svg" viewBox="0 0 386.933 87.1532"><g id="Components"><g id="_6bcb0867-4fa9-48d8-8ef0-1201af0355cd_4"><path d="M51.846,51.0468c0-3.1333.5833-6.0742,1.7334-8.7417,1.1614-2.6902,2.7885-5.08,4.8353-7.1006,2.052-2.0207,4.4766-3.6374,7.2068-4.8075,2.8895-1.2197,5.7077-1.8117,8.6189-1.8117h3.4659v6.7933h-3.4659c-2.1321,0-4.1771.4109-6.0803,1.2223-1.8805.8166-3.546,1.9423-4.9476,3.344-1.4278,1.4278-2.5509,3.0932-3.3388,4.9485-.8149,1.8683-1.2267,3.9125-1.2267,6.0785v22.4972l-6.8011.0784v-22.5007Z" style="fill:#000; stroke-width:0px;"/><path d="M364.2173,73.4743c-3.1255-.0087-5.1775-.6155-7.8702-1.7308-2.738-1.1274-5.2236-2.7911-7.3853-4.9433-2.133-2.1269-3.7967-4.6098-4.945-7.3801-1.1405-2.7598-1.7194-5.7024-1.722-8.7487,0-3.1289.6138-6.102,1.8239-8.8357,1.2014-2.7163,2.8556-5.1418,4.9163-7.2086,2.0442-2.0433,4.4583-3.687,7.1755-4.8858,2.5839-1.1283,4.7091-1.7804,7.9286-1.7804,3.1524,0,6.1403.5981,8.8793,1.7786,2.7607,1.1945,5.1975,2.839,7.2443,4.8875,2.059,2.0616,3.7001,4.4958,4.878,7.2338,1.1892,2.7615,1.7926,5.7538,1.7926,8.8941v3.0071h-37.724l.5015,1.9797c1.0047,3.0036,2.8399,5.5126,5.4447,7.4262,3.2238,2.3672,6.1874,3.5172,9.0586,3.5172h22.3814v6.7802l-22.377.0087h-.0009ZM363.8978,46.9758c2.8721,0,5.6232.0165,8.2524.0427,2.6501.0218,4.7073.0357,6.1813.0357h1.5114l-.4858-1.4313c-1.0769-3.1838-2.9862-5.8287-5.6763-7.8598-2.7372-2.045-5.927-3.0819-9.48-3.0819-4.239,0-7.3374,1.3677-10.6953,4.7195-1.7308,1.7429-3.0018,3.8124-3.7775,6.1508l-.4719,1.4243h14.6418Z" style="fill:#000; stroke-width:0px;"/><path d="M256.5145,73.4743v-22.7941c0-2.1217-.4022-4.1232-1.1945-5.9488-.7844-1.8274-1.8883-3.4667-3.283-4.8745-1.3851-1.3825-3.0436-2.4882-4.9276-3.2848-1.7264-.7252-4.3121-1.1936-6.5861-1.1936-2.1034,0-4.1084.4031-5.9593,1.1971-1.8317.787-3.4702,1.8927-4.8701,3.2865-1.3973,1.3964-2.5038,3.0349-3.2883,4.8693-.801,1.8761-1.2067,3.8777-1.2067,5.9488v22.7941h-6.7872v-22.7941c0-2.0625-.4135-4.064-1.2293-5.9497-.7862-1.8344-1.8909-3.472-3.2839-4.8701-1.3825-1.3825-3.041-2.4899-4.9285-3.2909-1.7621-.7339-4.2729-1.191-6.5495-1.191-2.0886,0-4.0892.4031-5.9479,1.1979-1.8422.7922-3.4772,1.8953-4.8597,3.2796-1.4017,1.3973-2.5082,3.0349-3.2891,4.8684-.7966,1.8448-1.1997,3.8481-1.1997,5.9558v22.7941h-6.8011v-22.7871c0-3.1629.5911-6.1421,1.7577-8.8557,1.1788-2.7276,2.8173-5.1496,4.8701-7.1999,2.0416-2.0416,4.4818-3.6783,7.2521-4.8632,2.9566-1.2545,5.3394-1.7664,8.2246-1.7664,3.8646,0,7.6595.881,10.6849,2.4803,3.1368,1.6437,5.7799,3.9107,7.8563,6.7367l.814,1.1083.8192-1.1057c2.0912-2.8286,4.7491-5.0956,7.899-6.7376,3.25-1.6933,6.4346-2.4821,10.0223-2.4821,3.1315,0,6.1099.592,8.8505,1.7595,2.7415,1.1971,5.1809,2.8373,7.2538,4.8762,2.0668,2.0346,3.7183,4.4549,4.9084,7.192,1.1727,2.7015,1.7673,5.6815,1.7673,8.8575v22.7871h-6.7889Z" style="fill:#000; stroke-width:0px;"/><path d="M317.0325,87.1532V22.1063c0-3.1342.5937-6.1134,1.7647-8.8549,1.1335-2.6153,2.6562-4.4209,4.905-6.6566,2.086-2.0503,4.5437-3.6896,7.3069-4.8754,2.6762-1.1414,5.645-1.7194,8.8244-1.7194h3.0497v6.7889h-3.6461c-2.126,0-4.1467.4022-6.008,1.1953-1.877.7862-3.5338,1.8944-4.9285,3.2926-1.4034,1.3999-2.5073,3.0367-3.2804,4.8658-.794,1.8283-1.1953,3.8359-1.1953,5.9706v6.459h17.1491v6.7898h-17.1491v51.7911h-6.7924Z" style="fill:#000; stroke-width:0px;"/><path d="M295.11,73.4717c-2.3358-.1785-6.9796-.7896-11.8445-2.8651-2.7067-1.1553-5.1087-2.7824-7.1389-4.8379-2.0337-2.0738-3.6461-4.4958-4.7918-7.1999-1.1797-2.7911-1.7525-5.6345-1.7525-8.6929V8.9132h6.7889v40.9826c0,2.1408.4074,4.1946,1.2119,6.1046.807,1.9153,1.9292,3.6017,3.3344,5.012,1.2928,1.2902,2.8843,2.7128,4.8771,3.4641,3.7662,1.4226,7.9791,2.2984,9.3973,2.4516l.3979.0427v6.5382l-.4797-.0374Z" style="fill:#000; stroke-width:0px;"/><path d="M100.5726,73.4743c-3.1255-.0087-5.1775-.6155-7.8702-1.7308-2.7372-1.1274-5.2219-2.7903-7.3844-4.9433-2.1338-2.1269-3.7976-4.609-4.9459-7.3801-1.1396-2.7607-1.7186-5.7033-1.7212-8.7487,0-3.1281.6129-6.1012,1.823-8.8357,1.2032-2.7189,2.8573-5.1435,4.918-7.2086,2.0416-2.0424,4.4557-3.687,7.1746-4.8858,2.5839-1.1283,4.7091-1.7804,7.9286-1.7804,3.1524,0,6.1403.5981,8.8793,1.7786,2.7589,1.1945,5.1966,2.839,7.2434,4.8875,2.0598,2.0607,3.7009,4.4949,4.8788,7.2338,1.1892,2.7598,1.7917,5.7529,1.7917,8.8941v3.0071h-37.7231l.5015,1.9797c1.0047,3.0027,2.8399,5.5126,5.4439,7.4262,3.2256,2.3672,6.1882,3.5172,9.0586,3.5172h22.3823v6.7802l-22.3779.0087h-.0009ZM100.2531,46.9758c2.873,0,5.6241.0165,8.2524.0427,2.651.0218,4.7073.0357,6.1813.0357h1.5122l-.4858-1.4313c-1.0778-3.1838-2.987-5.8287-5.6763-7.8606-2.7372-2.0442-5.927-3.0811-9.48-3.0811-4.2398,0-7.3383,1.3677-10.6953,4.7195-1.7316,1.7438-3.0036,3.8132-3.7784,6.1508l-.4719,1.4243h14.6418Z" style="fill:#000; stroke-width:0px;"/><path d="M171.2035,73.3977l-.4022.0392-19.6895-.1001c-2.8939,0-5.3011-.5206-8.3081-1.7969-2.7624-1.1736-5.2436-2.8451-7.3731-4.9676-2.1138-2.1121-3.7871-4.5976-4.9755-7.3888-1.1927-2.7894-1.7969-5.7869-1.7969-8.9097,0-3.1916.6042-6.2074,1.7952-8.9646,1.1875-2.7563,2.8599-5.2053,4.9703-7.2791,2.1321-2.0999,4.5454-3.7105,7.3757-4.925,3.014-1.2728,5.423-1.7917,8.3151-1.7917,3.0419,0,5.8618.599,8.874,1.8848,2.7807,1.2084,5.2306,2.8651,7.2843,4.9259,2.0537,2.0546,3.7105,4.5071,4.9215,7.2878,1.1866,2.7363,1.7873,5.7512,1.7873,8.962v23.0709l-2.7781-.047ZM151.1144,34.7753c-2.1182,0-4.1623.4057-6.075,1.2067-1.9205.814-3.5964,1.9327-4.9798,3.3248-1.3973,1.3903-2.516,3.0488-3.3283,4.9302-.8036,1.8561-1.211,3.8872-1.211,6.0367,0,2.321.4736,4.9398,1.2067,6.6705.8149,1.9371,1.9023,3.5686,3.3231,4.9894,1.507,1.5262,3.1855,2.6797,4.9903,3.4293,1.9049.8044,3.9473,1.2119,6.0742,1.2119h16.1052v-16.3011c0-2.119-.4057-4.1484-1.2049-6.0324-.801-1.8683-1.9197-3.5294-3.3266-4.9363-1.4182-1.4034-3.0793-2.523-4.9346-3.3248-1.7421-.7426-4.286-1.2049-6.6392-1.2049Z" style="fill:#000; stroke-width:0px;"/><path d="M22.9603,74.0872c-3.1907,0-6.2065-.6042-8.9646-1.7952-2.7546-1.1866-5.2044-2.8591-7.2791-4.9703-2.0999-2.133-3.7105-4.5454-4.9241-7.3757-1.2737-3.0158-1.7926-5.4238-1.7926-8.3151,0-3.2238.5842-6.1595,1.7856-8.9741,1.2084-2.7807,2.8643-5.2306,4.925-7.2843,2.0537-2.0529,4.5062-3.7096,7.2887-4.9224,2.7372-1.1858,5.7521-1.7865,8.9611-1.7865h16.2776l.1994-20.0403h6.5861v43.0076c0,2.8956-.5206,5.3028-1.796,8.3107-1.1753,2.765-2.8469,5.2454-4.9676,7.3731-2.1112,2.1129-4.5968,3.7871-7.3897,4.9755-2.7885,1.1919-5.786,1.7969-8.9097,1.7969ZM22.9603,35.4125c-1.9423,0-3.9717.4431-6.0324,1.3181-2.0259.868-3.6408,1.9197-4.9363,3.2143-1.4034,1.4173-2.523,3.0784-3.3248,4.9346-.7313,1.7151-1.2049,4.3661-1.2049,6.7515,0,2.1173.4057,4.1615,1.2067,6.075.814,1.9205,1.9327,3.5964,3.3248,4.979,1.3903,1.3982,3.0488,2.5169,4.9302,3.3283,1.8561.8044,3.8864,1.2119,6.0367,1.2119,2.321,0,4.9398-.4736,6.6723-1.2067,1.9353-.8158,3.5668-1.9023,4.9877-3.3231,1.4957-1.4757,2.6397-3.1542,3.4023-4.9903.8053-1.9057,1.2127-3.949,1.2127-6.0742v-16.2184h-16.275Z" style="fill:#000; stroke-width:0px;"/><path d="M305.7182,25.7376c2.3558,0,4.2729-1.9162,4.2729-4.272s-1.9171-4.2712-4.2729-4.2712-4.2703,1.9162-4.2703,4.2712,1.9153,4.272,4.2703,4.272Z" style="fill:#000; stroke-width:0px;"/><rect x="302.3681" y="28.5722" width="6.7036" height="44.9021" style="fill:#000; stroke-width:0px;"/></g></g></svg>